<svg width="40" height="40" viewBox="0 0 40 40" fill="none" xmlns="http://www.w3.org/2000/svg">
<path d="M12 31.143V30.3599L11.2397 30.1722C10.2227 29.921 9.35383 29.6188 8.66629 29.2744C7.97088 28.926 7.51778 28.5628 7.26332 28.2193C6.74531 27.5202 6.22431 26.3275 5.81075 24.7697C5.40237 23.2315 5.11802 21.4106 5.02934 19.5111C4.85006 15.6708 5.47767 11.706 7.28233 9.09629C7.8945 8.21104 9.41134 7.3921 11.729 6.81699C13.9809 6.25823 16.7596 5.98499 19.5849 6.00064C22.4087 6.01627 25.2325 6.32023 27.5712 6.8899C29.9643 7.47284 31.6527 8.28782 32.4251 9.18147C33.2268 10.1089 33.8789 11.5167 34.3277 13.24C34.773 14.9501 35 16.902 35 18.8522C35 20.8031 34.7729 22.7214 34.3298 24.3657C33.8823 26.027 33.2376 27.3228 32.4647 28.1175C32.0878 28.5051 31.4599 28.9032 30.5675 29.2754C29.6864 29.6429 28.606 29.9612 27.3818 30.2209C24.9334 30.7402 21.9885 31.0083 19.0801 30.9998L18.7477 30.9988L18.4809 31.1971L12 36.0114V31.143Z" stroke="black" stroke-width="2"/>
</svg>
